<svg version="1.2" xmlns="http://www.w3.org/2000/svg" viewBox="0 0 4488 4192">
	<g>
		<path class="s2" d="m2590.7 4135.8c-1.7 0-3.4-0.5-4.9-1.4-2.9-1.7-4.7-4.8-4.7-8.3l-2.5-2395c0-4.5 3.1-8.3 7.4-9.4 4.3-1.1 8.8 0.9 10.8 4.9l381.6 722.9 1281.5-620.7-460.9-681.3c-3-4.5-1.8-10.5 2.6-13.5 4.4-3 10.4-1.8 13.4 2.6l467.2 690.6c1.5 2.3 2 5.2 1.3 7.9-0.7 2.7-2.6 5-5.1 6.2l-1300 629.7c-4.7 2.2-10.3 0.4-12.7-4.2l-367.7-696.7 2.4 2339.7 1339-739.1-20.2-1334.8c-0.1-5.3 4.2-9.7 9.5-9.8q0.1 0 0.2 0c5.2 0 9.5 4.2 9.6 9.5l20.3 1340.6c0.1 3.5-1.8 6.9-5 8.6l-1358.4 749.8c-1.4 0.8-3.1 1.2-4.7 1.2z"/>
	</g>
	<g>
		<path fill-rule="evenodd" class="s2" d="m2527.4 4137.5q-1.3 0-2.5-0.3l-1828.1-487.5c-4.2-1.1-7.1-5-7.1-9.3v-1397.8l-521.3-157c-3.1-0.9-5.6-3.4-6.5-6.6-0.9-3.1-0.1-6.5 2.1-9l703.1-803.6-802.3-461.3c-3.2-1.8-5.1-5.4-4.8-9.1 0.3-3.7 2.7-6.9 6.2-8.3l1259.3-487.4c2.9-1.2 6.2-0.8 8.8 0.9l723.3 482.2 461.8-682.7c2.2-3.3 6.2-4.9 10.2-4l1889 446.9c3.4 0.8 6.1 3.4 7.1 6.8 0.9 3.5-0.1 7.1-2.6 9.6l-609.3 588.9q-0.4 0.4-0.9 0.8-1.1 0.8-2.3 1.3l-1273.6 545.8v2431c0 3-1.4 5.9-3.7 7.7-1.8 1.3-3.8 2-5.9 2zm-1818.4-504.6l1808.7 482.4v-2395.9l-652.9 870.6c-2.4 3.2-6.6 4.6-10.5 3.4l-1145.3-345zm-520.6-1561.5l1665 501.6 657.6-876.8-1625.5-421.4zm724.8-809.5l1613.4 418.3 1247.9-534.8-1713.4-338.7zm-821.2-463.6l790.9 454.8 1156.6-458.7-711.7-474.4zm1984.4-8.4l1727.5 341.5 593-573.2-1865.3-441.3z"/>
	</g>
</svg>