<svg width="34" height="50" viewBox="0 0 34 50" fill="none" xmlns="http://www.w3.org/2000/svg">
<path d="M5.8067 25.6562C5.6328 23.8963 4.87396 21.0265 7.03456 21.2062C7.03456 21.2062 12.7575 23.8434 12.6996 18.569C12.6416 13.2946 6.50758 16.8725 6.44962 15.1707C6.39165 13.469 5.8067 9.13525 6.73945 8.25794C7.6722 7.38063 12.3465 8.78644 12.8735 7.84571C13.4004 6.90498 11.5297 3.68641 12.6996 2.2806C13.8695 0.874782 18.0168 0.520686 19.2394 1.75209C20.4619 2.9835 17.9535 7.43348 19.3553 7.60789C20.757 7.78229 25.4893 7.25379 25.9583 7.96198C26.4273 8.67017 26.7172 14.0556 26.3694 14.6422C26.0216 15.2289 19.7663 12.8823 19.9455 17.5701C20.1247 22.2579 25.6685 20.8521 26.1955 21.3806C26.7224 21.9091 27.3074 27.2364 25.9056 27.6486C24.5039 28.0609 19.1287 27.8231 19.1287 29.1707C19.1287 30.5184 22.5172 35.4969 16.1513 35.6713C9.78538 35.8457 13.9327 29.8736 13.8168 29.1126C13.7008 28.3516 7.85665 27.7068 7.03983 28.4678C6.22302 29.2289 8.26769 34.7359 7.0978 35.2644C5.92791 35.7929 0.668677 33.2138 1.01648 38.076C1.36429 42.9382 6.44962 39.7143 6.97659 40.5388C7.50357 41.3633 5.16379 48.0382 7.79341 48.3289C10.423 48.6196 13.7535 49.0899 13.8695 48.0382C13.9854 46.9865 11.3558 42.415 16.615 42.5312C21.8742 42.6475 18.0168 47.1609 19.8875 48.0382C21.7583 48.9155 26.0215 49.6184 26.4906 48.1545C26.9596 46.6905 25.7317 40.2481 26.7804 40.3063C27.8291 40.3644 29.352 42.1824 30.9277 41.5958C32.5034 41.0092 33.6733 36.7336 32.5613 35.3278C31.4494 33.922 27.2441 36.5592 26.2534 35.3278C25.2627 34.0964 26.1164 31.7551 26.6065 30.233C26.7062 23.5 7.03983 28.4678 5.81197 25.6615L5.8067 25.6562Z" fill="white"/>
<path d="M5.8067 25.6562C5.6328 23.8963 4.87395 21.0265 7.03456 21.2062C7.03456 21.2062 12.7575 23.8434 12.6996 18.569C12.6416 13.2946 6.50758 16.8725 6.44962 15.1707C6.39165 13.469 5.8067 9.13525 6.73945 8.25794C7.6722 7.38063 12.3465 8.78644 12.8735 7.84571C13.4004 6.90498 11.5297 3.68641 12.6996 2.2806C13.8695 0.874782 18.0168 0.520686 19.2394 1.75209C20.4619 2.9835 17.9535 7.43348 19.3553 7.60789C20.757 7.78229 25.4893 7.25379 25.9583 7.96198C26.4273 8.67017 26.7172 14.0556 26.3694 14.6422C26.0215 15.2289 19.7663 12.8823 19.9455 17.5701C20.1247 22.2579 25.6685 20.8521 26.1955 21.3806C26.7224 21.9091 27.3074 27.2364 25.9056 27.6487C24.5039 28.0609 19.1287 27.8231 19.1287 29.1707C19.1287 30.5184 22.5171 35.4969 16.1513 35.6713C9.78538 35.8457 13.9327 29.8736 13.8168 29.1126C13.7008 28.3516 7.85665 27.7068 7.03983 28.4678C6.22302 29.2289 8.26769 34.7359 7.0978 35.2644C5.92791 35.7929 0.668677 33.2138 1.01648 38.076C1.36429 42.9382 6.44962 39.7143 6.97659 40.5388C7.50357 41.3633 5.16379 48.0382 7.79341 48.3289C10.423 48.6196 13.7535 49.0899 13.8695 48.0382C13.9854 46.9865 11.3558 42.415 16.615 42.5312C21.8742 42.6475 18.0168 47.1609 19.8875 48.0382C21.7583 48.9155 26.0215 49.6184 26.4906 48.1545C26.9596 46.6905 25.7317 40.2481 26.7804 40.3063C27.8291 40.3644 29.352 42.1824 30.9277 41.5958C32.5034 41.0092 33.6733 36.7336 32.5613 35.3278C31.4494 33.922 27.2441 36.5592 26.2534 35.3278C25.2627 34.0964 26.6065 30.233 26.6065 30.233" stroke="black" stroke-width="1.5" stroke-miterlimit="10"/>
</svg>
