<svg version="1.2" xmlns="http://www.w3.org/2000/svg" viewBox="0 0 3203 2331" width="3203" height="2331">
	<title>cup_4</title>
	<style>
		.s0 { fill: none;stroke: #000000;stroke-miterlimit:22.9256;stroke-width: 12.8 } 
	</style>
	<g id="g8">
		<g id="g10">
			<path id="path12" class="s0" d="m3203.3 2203.4c-353.9-3.6-707.8-7.2-894.2-11.6-186.3-4.4-205.1-9.6-214.5-12-9.5-2.3-9.6-1.8-12.8-4.6-3.3-2.8-9.5-8.9-47.1-21.9-37.6-12.9-106.6-32.7-190.5-45.2-83.9-12.6-182.7-17.8-287.9-15.1-105.2 2.7-216.8 13.3-294.4 27.4-77.7 14-121.5 31.4-143.3 40.1-21.9 8.7-21.9 8.7-21.9 8.7 0 0 0 0-15.3-207.4-15.3-207.5-45.9-622.3-61.1-830-15.3-207.7-15.3-208.3-15.9-209.5-0.6-1.2-1.8-3 9-0.9 10.8 2.1 33.5 8.1 127.6 11.7 94.2 3.6 259.6 4.8 405 5.1 145.3 0.3 270.6-0.3 373.1-2.4 102.5-2.1 182.2-5.7 222.1-7.5 39.9-1.8 39.9-1.8 31.2 122.3-8.7 124.1-26.1 372.3-34.8 496.3-8.7 124.1-8.7 124.1-90.5 132.2-81.8 8.1-245.5 24.3-373.4 29.4-128 5.1-220.3-0.9-311.2-8.7-90.8-7.8-180.1-17.4-224.8-22.2-44.6-4.8-44.6-4.8-50.6-101-6-96.2-18-288.6-25.2-399.8-7.2-111.2-9.6-141.2-11.1-157.1-1.5-15.9-2.1-17.7-9.7-31.5-7.6-13.9-22.1-39.9-28.8-53.2-6.7-13.3-5.5-13.9-9.6-78.5-4.1-64.6-13.5-193.3-18.2-257.7-4.7-64.3-4.7-64.3 200.2-64 204.8 0.3 614.5 0.9 819.4 1.2 204.8 0.3 204.8 0.3 213.4-25.8 8.5-26.1 25.6-78.2 34.3-104.6 8.7-26.4 9-27 9.1-27.3 0.2-0.3 0.2-0.3-224.4-0.3-224.7 0-674 0-898.6 0-224.6 0-224.6 0-224.5 0.3 0.2 0.3 0.5 0.9 0.8-14.2 0.3-15.1 0.6-46 4.6-66 4-19.9 11.8-28.9 24.3-33.8 12.4-5 29.5-5.9 95-6.5 65.5-0.6 179.4-0.9 371.9-0.4 192.6 0.4 463.9 1.6 599.5 2.2 135.6 0.6 135.6 0.6 129.9-15.5-5.7-16.2-17.1-48.6-27.3-80.1-10.2-31.4-19.1-62-24.5-78.5-5.4-16.5-7.2-18.9-18.9-19.3-11.7-0.5-33.3 1-113.3 10.2-80 9.1-218.5 25.9-369.7 44.9-151.2 19-315.2 40.3-397.2 51-81.9 10.6-81.9 10.6-85.8 18.9-4 8.3-11.8 24.8-15.7 33.1-4 8.3-4 8.3 166 7.9 170-0.3 509.9-1 679.9-1.3 169.9-0.3 169.9-0.3 177.3 4.6 7.3 5 22 14.8 29.7 19.3 7.6 4.5 8.2 3.6 27.1 3.2 18.9-0.5 56-0.5 76.7 0.3 20.7 0.7 24.9 2.2 29.7 8.7 4.8 6.4 10.2 17.8 13.3 30.3 3.2 12.4 4.1 25.9 4.8 39.7 0.8 13.7 1.4 27.8 1.7 34.9 0.3 7 0.3 7-5.6 7-5.8 0-17.5 0-23.4 0-5.8 0-5.8 0-10 4.4-4.2 4.3-12.6 13-21.7 22-9.2 9-19.1 18.3-24 22.9-4.9 4.7-4.9 4.7-215.5 5-210.6 0.3-631.7 0.9-842.2 1.2-210.6 0.3-210.6 0.3-210.6 0.3 0 0 0 0 10.4 27.2 10.3 27.3 31 81.9 41.3 109.2 10.4 27.2 10.4 27.2 210.3 26.6 199.9-0.6 599.7-1.8 799.6-2.4 200-0.6 200-0.6 196.2 50.8-3.7 51.4-11.2 154.2-15 205.3-3.7 51.1-3.7 50.5-10.3 70.9-6.6 20.4-19.8 61.8-26.4 82.4-6.6 20.7-6.6 20.7-14.8 128.7-8.2 108.1-24.7 324.1-33 432.1-8.2 108-8.2 108-2.4 114.2 5.9 6.2 17.6 18.5 21.9 31.3 4.3 12.8 1.3 26-5 105.1-6.3 79.1-15.8 224.2-20.9 296.7-5.1 72.6-5.7 72.6-22.5 80-16.8 7.5-49.8 22.5-110.6 36-60.9 13.5-149.6 25.5-239.2 31.2-89.6 5.7-180.1 5.1-265.8-1.2-85.8-6.3-166.7-18.3-222.1-29.7-55.5-11.4-85.5-22.2-104.6-28.5-19.2-6.3-27.6-8.1-213.1-10.1-185.6-1.9-548.2-4.1-910.9-6.3"/>
		</g>
	</g>
</svg>