<svg width="136" height="68" viewBox="0 0 136 68" fill="none" xmlns="http://www.w3.org/2000/svg">
<mask id="path-1-inside-1_2005_621" fill="white">
<path d="M92.2664 22C90.1001 22 88.3433 23.7848 88.3433 25.9862C88.3433 28.1875 90.1001 29.971 92.2664 29.971C94.4336 29.971 96.1894 28.1875 96.1894 25.9862C96.1894 23.7848 94.4336 22 92.2664 22ZM120.397 22.0139L120.328 22.0445L120.136 22.1228C119.186 22.5189 115.498 23.6363 113.804 24.1159L113.393 24.2311V26.0353L114.018 25.9647C114.392 25.9214 114.682 25.9217 115.082 25.9217C115.5 25.9217 115.796 26.011 115.965 26.1858C116.248 26.4777 116.241 27.0554 116.234 27.5202C116.234 27.5232 116.231 27.7275 116.231 27.7275V49.2329C116.231 52.1566 116.052 52.4111 113.853 52.648L113.346 52.7017V54.4722H123.791V52.6572L123.699 52.6484C121.681 52.4302 121.139 52.3701 121.139 49.2794V38.4387C121.392 38.1203 123.248 35.8975 125.529 35.8975C127.51 35.8975 128.391 37.2593 128.391 40.3137V49.3258C128.391 52.164 127.909 52.49 125.847 52.6472L125.806 52.6501V54.4728H136V52.7361L135.537 52.6548C133.555 52.299 133.298 52.2503 133.298 49.3257V40.1294C133.298 34.9238 131.244 32.2843 127.198 32.2843C124.911 32.2843 122.825 33.2747 121.139 35.1282V22.4665L120.397 22.015L120.397 22.0139ZM81.2288 22.04L81.1744 22.0599L81.0278 22.1137V22.1117C80.2199 22.4056 77.0334 23.4652 74.4637 24.1079L74.0343 24.2169V26.0304L74.6526 25.9643C76.0962 25.814 76.6436 26.0048 76.8478 26.1916C77.0848 26.4088 77.0972 26.8492 77.0972 27.5459V33.6497C75.7765 32.6984 74.5002 32.2845 72.8854 32.2845C70.3234 32.2845 67.7761 33.5905 65.901 35.8685C64.0569 38.1082 63 41.1113 63 44.1097C63 54.6251 70.8638 54.9278 71.7607 54.9278C73.9512 54.9278 75.7417 54.2358 77.0972 52.8855V54.5086L77.7442 55L85.0219 52.3834V50.6314L84.4172 50.679C83.0027 50.791 82.4609 50.5814 82.2539 50.3888C82.0439 50.1912 82.006 49.8463 82.006 49.234V22.3559L81.2288 22.04ZM106.414 32.2831C102.485 32.2831 99.6333 34.8902 99.6333 38.4821C99.6333 42.1252 102.262 43.9342 105.191 45.6147L107.801 47.1226C109.224 47.9363 109.859 48.856 109.859 50.1031C109.859 51.7551 108.659 52.7811 106.727 52.7811C103.164 52.7811 102.094 49.7748 101.514 46.8324L101.423 46.3748H99.6803V54.6544H101.035L101.203 54.4625C101.515 54.1048 101.514 54.1047 101.818 54.1047C102.341 54.087 103.017 54.2491 103.795 54.4349C104.773 54.6658 105.881 54.9278 107.043 54.9278C109.989 54.9278 114.137 52.9206 114.137 48.457C114.137 45.3436 112.302 43.9485 110.084 42.5697C110.082 42.5678 105.213 39.6384 105.213 39.6384C104.097 38.9623 103.552 38.0589 103.552 36.8806C103.552 35.9156 104.314 34.479 106.414 34.479C107.972 34.479 109.888 35.0663 110.861 39.6537L110.958 40.1067H112.668L112.453 32.6947H111.086L110.923 32.9818C110.85 33.1165 110.728 33.1968 110.601 33.1968C110.531 33.1938 110.146 33.0682 109.915 32.9926C109.044 32.7095 107.736 32.2831 106.414 32.2831ZM89.7663 33.4087C89.6753 33.3743 89.6428 33.4408 89.6786 33.5116C90.1382 34.4442 90.8338 35.3788 92.2667 35.3788C93.6987 35.3788 94.3969 34.4442 94.8564 33.5116C94.8903 33.4408 94.8574 33.3743 94.7658 33.4087C94.7039 33.4323 93.7065 33.8064 92.2668 33.8064C90.8272 33.8064 89.8282 33.4323 89.7663 33.4087ZM73.0203 34.7078C75.5726 34.7078 77.0975 36.8827 77.0975 38.9858V49.1484C76.7879 50.4593 75.34 51.4117 73.6507 51.4117C71.0432 51.4117 67.9968 49.1118 67.9968 42.6453C67.9968 36.7872 70.7021 34.7078 73.0203 34.7078ZM88.5269 38.3639C88.4708 38.3717 88.4565 38.4352 88.4921 38.5067C89.1907 39.8953 90.211 41.1662 92.267 41.1662C94.324 41.1662 95.3438 39.8953 96.0404 38.5067C96.0897 38.4114 96.0472 38.3305 95.9361 38.3777C95.6091 38.5261 94.1789 39.1332 92.267 39.1332C90.3552 39.1332 88.9234 38.5261 88.5964 38.3777C88.5688 38.3659 88.5455 38.3614 88.5269 38.3639ZM87.2691 43.6477C87.2014 43.6556 87.1842 43.733 87.2328 43.8274C88.1819 45.6966 89.5463 47.3284 92.2669 47.3284C94.9886 47.3284 96.3519 45.6966 97.3011 43.8274C97.3649 43.7016 97.3143 43.6072 97.1817 43.6661C96.5741 43.9492 94.6819 44.8055 92.2669 44.8055C89.8529 44.8055 87.9598 43.9492 87.3522 43.6661C87.319 43.6514 87.2916 43.6452 87.2691 43.6477ZM85.8949 49.4121C85.8151 49.419 85.7946 49.5107 85.8556 49.6286C87.0805 52.0265 88.8217 54.0479 92.267 54.0479C95.7124 54.0479 97.4536 52.0265 98.6785 49.6286C98.7597 49.4714 98.6962 49.3615 98.5394 49.4352C97.626 49.8636 95.2277 50.9937 92.2671 50.9937C89.3055 50.9937 86.9091 49.8636 85.9948 49.4352C85.9559 49.4167 85.9215 49.4097 85.8949 49.4121Z"/>
</mask>
<path d="M92.2664 22C90.1001 22 88.3433 23.7848 88.3433 25.9862C88.3433 28.1875 90.1001 29.971 92.2664 29.971C94.4336 29.971 96.1894 28.1875 96.1894 25.9862C96.1894 23.7848 94.4336 22 92.2664 22ZM120.397 22.0139L120.328 22.0445L120.136 22.1228C119.186 22.5189 115.498 23.6363 113.804 24.1159L113.393 24.2311V26.0353L114.018 25.9647C114.392 25.9214 114.682 25.9217 115.082 25.9217C115.5 25.9217 115.796 26.011 115.965 26.1858C116.248 26.4777 116.241 27.0554 116.234 27.5202C116.234 27.5232 116.231 27.7275 116.231 27.7275V49.2329C116.231 52.1566 116.052 52.4111 113.853 52.648L113.346 52.7017V54.4722H123.791V52.6572L123.699 52.6484C121.681 52.4302 121.139 52.3701 121.139 49.2794V38.4387C121.392 38.1203 123.248 35.8975 125.529 35.8975C127.51 35.8975 128.391 37.2593 128.391 40.3137V49.3258C128.391 52.164 127.909 52.49 125.847 52.6472L125.806 52.6501V54.4728H136V52.7361L135.537 52.6548C133.555 52.299 133.298 52.2503 133.298 49.3257V40.1294C133.298 34.9238 131.244 32.2843 127.198 32.2843C124.911 32.2843 122.825 33.2747 121.139 35.1282V22.4665L120.397 22.015L120.397 22.0139ZM81.2288 22.04L81.1744 22.0599L81.0278 22.1137V22.1117C80.2199 22.4056 77.0334 23.4652 74.4637 24.1079L74.0343 24.2169V26.0304L74.6526 25.9643C76.0962 25.814 76.6436 26.0048 76.8478 26.1916C77.0848 26.4088 77.0972 26.8492 77.0972 27.5459V33.6497C75.7765 32.6984 74.5002 32.2845 72.8854 32.2845C70.3234 32.2845 67.7761 33.5905 65.901 35.8685C64.0569 38.1082 63 41.1113 63 44.1097C63 54.6251 70.8638 54.9278 71.7607 54.9278C73.9512 54.9278 75.7417 54.2358 77.0972 52.8855V54.5086L77.7442 55L85.0219 52.3834V50.6314L84.4172 50.679C83.0027 50.791 82.4609 50.5814 82.2539 50.3888C82.0439 50.1912 82.006 49.8463 82.006 49.234V22.3559L81.2288 22.04ZM106.414 32.2831C102.485 32.2831 99.6333 34.8902 99.6333 38.4821C99.6333 42.1252 102.262 43.9342 105.191 45.6147L107.801 47.1226C109.224 47.9363 109.859 48.856 109.859 50.1031C109.859 51.7551 108.659 52.7811 106.727 52.7811C103.164 52.7811 102.094 49.7748 101.514 46.8324L101.423 46.3748H99.6803V54.6544H101.035L101.203 54.4625C101.515 54.1048 101.514 54.1047 101.818 54.1047C102.341 54.087 103.017 54.2491 103.795 54.4349C104.773 54.6658 105.881 54.9278 107.043 54.9278C109.989 54.9278 114.137 52.9206 114.137 48.457C114.137 45.3436 112.302 43.9485 110.084 42.5697C110.082 42.5678 105.213 39.6384 105.213 39.6384C104.097 38.9623 103.552 38.0589 103.552 36.8806C103.552 35.9156 104.314 34.479 106.414 34.479C107.972 34.479 109.888 35.0663 110.861 39.6537L110.958 40.1067H112.668L112.453 32.6947H111.086L110.923 32.9818C110.85 33.1165 110.728 33.1968 110.601 33.1968C110.531 33.1938 110.146 33.0682 109.915 32.9926C109.044 32.7095 107.736 32.2831 106.414 32.2831ZM89.7663 33.4087C89.6753 33.3743 89.6428 33.4408 89.6786 33.5116C90.1382 34.4442 90.8338 35.3788 92.2667 35.3788C93.6987 35.3788 94.3969 34.4442 94.8564 33.5116C94.8903 33.4408 94.8574 33.3743 94.7658 33.4087C94.7039 33.4323 93.7065 33.8064 92.2668 33.8064C90.8272 33.8064 89.8282 33.4323 89.7663 33.4087ZM73.0203 34.7078C75.5726 34.7078 77.0975 36.8827 77.0975 38.9858V49.1484C76.7879 50.4593 75.34 51.4117 73.6507 51.4117C71.0432 51.4117 67.9968 49.1118 67.9968 42.6453C67.9968 36.7872 70.7021 34.7078 73.0203 34.7078ZM88.5269 38.3639C88.4708 38.3717 88.4565 38.4352 88.4921 38.5067C89.1907 39.8953 90.211 41.1662 92.267 41.1662C94.324 41.1662 95.3438 39.8953 96.0404 38.5067C96.0897 38.4114 96.0472 38.3305 95.9361 38.3777C95.6091 38.5261 94.1789 39.1332 92.267 39.1332C90.3552 39.1332 88.9234 38.5261 88.5964 38.3777C88.5688 38.3659 88.5455 38.3614 88.5269 38.3639ZM87.2691 43.6477C87.2014 43.6556 87.1842 43.733 87.2328 43.8274C88.1819 45.6966 89.5463 47.3284 92.2669 47.3284C94.9886 47.3284 96.3519 45.6966 97.3011 43.8274C97.3649 43.7016 97.3143 43.6072 97.1817 43.6661C96.5741 43.9492 94.6819 44.8055 92.2669 44.8055C89.8529 44.8055 87.9598 43.9492 87.3522 43.6661C87.319 43.6514 87.2916 43.6452 87.2691 43.6477ZM85.8949 49.4121C85.8151 49.419 85.7946 49.5107 85.8556 49.6286C87.0805 52.0265 88.8217 54.0479 92.267 54.0479C95.7124 54.0479 97.4536 52.0265 98.6785 49.6286C98.7597 49.4714 98.6962 49.3615 98.5394 49.4352C97.626 49.8636 95.2277 50.9937 92.2671 50.9937C89.3055 50.9937 86.9091 49.8636 85.9948 49.4352C85.9559 49.4167 85.9215 49.4097 85.8949 49.4121Z" fill="white" stroke="black" stroke-width="2.4" mask="url(#path-1-inside-1_2005_621)"/>
<path d="M29.4999 8.99999C19.4999 -1.33514e-05 12.4999 0.999855 7.9999 2.99995C6.33323 3.99995 3.09265 8.03683 2 13.5C0.499979 21 2.70225 33.3963 12.5002 45.5C20.9999 56 31.4999 56.5 37.9999 53C44.4999 49.5 42.9996 36.5 41.9999 32.5C41.3817 30.0266 39.4999 18 29.4999 8.99999Z" fill="white"/>
<path d="M54.9522 33.3947C55.4616 32.1906 54.8137 31.1809 53.518 31.1719C53.4724 31.1719 53.4268 31.1706 53.3817 31.171C52.7263 31.1773 52.3009 31.4552 52.1718 32.095C52.094 32.4797 52.1678 32.8975 52.1937 33.2991C52.2089 33.5328 52.2862 33.7625 52.2973 33.9961C52.3139 34.3478 52.2585 34.7061 52.3036 35.0524C52.3769 35.6149 52.1865 36.013 51.6982 36.2869C51.4453 36.4289 51.288 36.6197 51.4672 36.9236C50.9726 37.327 50.4985 37.7135 50.0249 38.1C49.9655 38.0674 49.9244 38.0495 49.8882 38.0245C47.4951 36.3499 45.1048 34.6712 42.7064 33.0042C42.4816 32.8479 42.3789 32.6647 42.319 32.4073C42.0951 31.4454 41.8789 30.4798 41.6063 29.5313C40.2472 24.8024 38.1874 20.3898 35.5169 16.2632C32.8343 12.1182 29.6558 8.41648 25.6883 5.43678C23.2139 3.57855 20.5425 2.10903 17.5078 1.38119C14.1533 0.575169 10.9984 1.0318 8.07189 2.89986C5.03813 4.83584 3.16426 7.63816 2.06871 11.0017C0.78193 14.9522 0.777909 18.9864 1.42041 23.0406C1.94897 26.3755 2.93505 29.5844 4.22987 32.7018C6.72614 38.7103 10.1339 44.1157 14.7859 48.6998C14.9477 48.8589 14.9602 48.963 14.8288 49.152C12.0917 53.1026 9.36091 57.0576 6.6332 61.0149C6.51346 61.1883 6.40489 61.2709 6.16898 61.254C5.91788 61.2356 5.64935 61.2969 5.40495 61.3755C4.66371 61.6136 4.10522 62.1176 3.63206 62.7101C2.98688 63.5183 2.37343 64.3512 1.73987 65.1688C1.47715 65.5079 1.28145 65.8654 1.31049 66.3108L1.30871 66.3086C1.33239 66.3443 1.35562 66.3805 1.3793 66.4163C1.3793 66.4163 1.38958 66.4216 1.38958 66.4212C1.6237 66.7094 1.90518 66.8648 2.29836 66.8608C5.36563 66.8273 8.43335 66.8081 11.5006 66.784C11.5596 66.7835 11.623 66.7831 11.6807 66.7741C11.6999 66.6633 11.7303 66.5552 11.7705 66.4507C11.695 66.4046 11.5882 66.3635 11.5105 66.3265C11.3988 66.2733 11.275 66.2465 11.1566 66.2076C11.1986 66.0847 11.2151 65.9444 11.2862 65.8417C13.7766 62.2436 16.272 58.6491 18.7674 55.0542C19.2258 54.3934 19.6869 53.7343 20.1301 53.0981C20.987 53.5655 21.8159 54.0136 22.6389 54.4716C22.7523 54.535 22.8591 54.6333 22.9337 54.7405C25.5176 58.4539 28.0974 62.1699 30.6741 65.8882C30.7505 65.9985 30.7902 66.1339 30.8599 66.2858C30.7366 66.3064 30.6683 66.2979 30.6303 66.3282C30.5374 66.402 30.4583 66.494 30.3734 66.5785C30.4744 66.6473 30.5731 66.7706 30.6772 66.7755C31.3242 66.8054 31.972 66.8157 32.6194 66.8175C32.9809 66.8184 33.0287 66.7326 33.047 66.3242C33.0613 66.0066 32.9157 65.9132 32.623 65.8917C32.48 65.8814 32.2933 65.7948 32.2142 65.6813C29.8971 62.3651 27.5907 59.041 25.2839 55.7177C25.2307 55.6408 25.1896 55.5559 25.1061 55.4107C25.3286 55.4733 25.4796 55.5113 25.6279 55.5586C27.5939 56.1877 29.5946 56.3325 31.6186 55.9259C32.1213 55.8249 32.5077 55.8267 32.8169 56.2896C32.875 56.3767 33.1319 56.4473 33.1896 56.3986C33.5171 56.1216 33.8758 55.8446 34.0925 55.4876C34.2109 55.2932 34.3164 55.1931 34.5027 55.1208C36.0151 54.5337 37.4592 53.8317 38.6655 52.7116C40.4237 51.079 41.5027 49.0461 42.2073 46.7848C42.2578 46.6231 42.3556 46.4479 42.4839 46.343C45.691 43.7095 48.9048 41.0841 52.1182 38.4583C52.2929 38.3158 52.4421 38.1027 52.7285 38.28C52.7799 38.3122 52.9354 38.217 53.0189 38.1509C53.5618 37.7193 54.1082 37.2913 54.6287 36.8342C54.7534 36.7252 54.8454 36.5121 54.8494 36.3441C54.8704 35.5144 54.8521 34.6838 54.8593 33.854C54.8606 33.7008 54.8914 33.5368 54.9509 33.3961L54.9522 33.3947ZM53.1646 31.7045C52.901 32.3488 52.8456 32.977 53.2352 33.6159C52.8299 33.5744 52.5985 33.2562 52.5623 32.754C52.523 32.2085 52.7419 31.8055 53.1646 31.7045ZM49.3293 38.553C49.4615 38.5914 49.5987 38.8073 49.6273 38.9623C49.6679 39.1817 49.4588 39.2496 49.2823 39.2219C48.7261 39.1343 48.1725 39.0284 47.6198 38.9185C47.3763 38.8703 47.1382 38.7956 46.8973 38.7326C45.7267 38.591 44.5561 38.4512 43.3859 38.3073C42.0013 38.1366 40.6167 37.9628 39.2325 37.7894C37.6571 37.592 36.0821 37.3905 34.5063 37.1965C33.3017 37.0482 32.0958 36.9128 30.8912 36.7654C29.3037 36.5715 27.7176 36.3704 26.1306 36.1747C24.7571 36.0058 23.3832 35.8423 22.0098 35.673C20.4339 35.4786 18.8589 35.2793 17.2835 35.0845C15.9105 34.9147 14.5375 34.7494 13.1645 34.581C11.8371 34.4179 10.5096 34.253 9.18219 34.0864C9.14242 34.0815 9.10578 34.0506 9.07942 33.9796C9.67769 34.0497 10.2768 34.1168 10.8747 34.1909C12.0899 34.3411 13.3043 34.4965 14.5192 34.6462C15.9373 34.8209 17.3559 34.9911 18.7741 35.165C20.1363 35.3316 21.4982 35.5009 22.86 35.6685C24.4587 35.8651 26.0569 36.0608 27.6555 36.2565C29.0401 36.4263 30.4252 36.5943 31.8098 36.7654C33.3857 36.9597 34.9607 37.1586 36.5365 37.3525C37.91 37.5214 39.2843 37.6849 40.6578 37.8538C42.2448 38.0486 43.8318 38.2461 45.4184 38.4436C45.9135 38.5052 46.4076 38.5713 46.9022 38.6357C47.4317 38.5861 47.9603 38.5226 48.4906 38.4927C48.7703 38.4771 49.0656 38.4762 49.3293 38.553ZM48.3427 39.5253C46.5193 41.0167 44.7232 42.4857 42.9217 43.9593C43.0142 42.1806 43.1045 40.4439 43.1978 38.6495C44.8756 38.9114 46.6301 38.9261 48.3427 39.5253ZM30.9547 54.3415C31.1079 54.4859 31.2607 54.6306 31.4135 54.7754C31.397 54.8111 31.3809 54.8469 31.3644 54.8826C30.6848 54.7933 29.9981 54.7414 29.3274 54.6074C26.2843 53.9993 23.5972 52.6084 21.1019 50.8078C17.6249 48.299 14.773 45.184 12.2727 41.7257C10.7379 39.6026 9.41095 37.3543 8.23363 35.0157C8.18806 34.925 8.15232 34.829 8.1121 34.7356C8.09959 34.6976 8.08753 34.6596 8.07502 34.6212C8.10719 34.6382 8.13981 34.6552 8.17198 34.6726C8.20593 34.6708 8.25463 34.6842 8.27206 34.6668C8.74343 34.195 9.29567 34.4738 9.80145 34.5323C12.3402 34.8267 14.8748 35.152 17.4109 35.4688C19.6878 35.7529 21.9637 36.0443 24.2411 36.3248C26.9469 36.6582 29.6536 36.9816 32.3594 37.3136C34.8624 37.621 37.3644 37.9347 39.867 38.2438C40.69 38.3453 41.5134 38.44 42.3364 38.5405C42.4584 38.5553 42.5781 38.5861 42.7207 38.6138C42.7207 39.5521 42.7618 40.4734 42.709 41.3893C42.6563 42.3061 42.5187 43.2185 42.3945 44.1295C42.373 44.2881 42.2689 44.4731 42.1452 44.5754C40.1922 46.1901 38.2299 47.7937 36.2689 49.3986C34.765 50.6291 33.2561 51.8538 31.7576 53.091C31.4694 53.3286 31.2192 53.6124 30.9506 53.8737C30.7876 54.0319 30.7898 54.1869 30.9542 54.342L30.9547 54.3415ZM6.97813 32.8756C7.19527 32.6937 7.40169 32.5208 7.58801 32.3644C8.00443 32.7697 8.42531 33.1789 8.87568 33.6172C8.6849 33.7995 8.48563 33.9899 8.29842 34.1686C7.87083 33.7499 7.45978 33.3469 6.97813 32.8756ZM48.4629 38.0848C46.6038 38.4025 45.7357 38.0678 43.0986 37.7676C42.9445 36.5371 42.7895 35.3026 42.6277 34.0127C44.5731 35.37 46.4939 36.7109 48.4629 38.0848ZM41.945 33.0628C41.9298 33.0498 41.9142 33.0373 41.899 33.0243C41.857 32.9913 41.815 32.9578 41.773 32.9247C41.7851 32.9104 41.7976 32.8961 41.8096 32.8818C41.8498 32.9185 41.8905 32.9551 41.9307 32.9922C41.9356 33.0159 41.9401 33.0391 41.945 33.0628ZM12.3991 1.69529C15.0464 1.21275 17.5748 1.72299 20.0229 2.73812C23.3055 4.09951 26.1015 6.18204 28.6456 8.62379C32.1382 11.9761 34.9272 15.857 37.2179 20.1087C39.1016 23.6045 40.5582 27.2673 41.529 31.1201C41.6278 31.5124 41.7149 31.9078 41.823 32.3698C41.3231 32.1066 40.9352 31.8957 40.9321 31.3006C40.929 30.7363 40.8633 30.7354 40.2847 30.8055C39.5033 30.9003 39.5305 30.8748 39.6534 31.6656C39.69 31.9011 39.7128 32.1388 39.7289 32.3765C39.7468 32.6383 39.8594 32.8126 40.1355 32.7286C40.6024 32.586 40.9272 32.8152 41.2766 33.0654C42.1765 33.7093 42.1867 33.6995 42.3293 34.7923C42.4405 35.6484 42.5424 36.5053 42.6443 37.3628C42.6572 37.4713 42.646 37.583 42.646 37.7256C41.9977 37.6487 41.3695 37.5759 40.7418 37.499C38.3849 37.2104 36.0285 36.9213 33.6716 36.6309C31.3943 36.3503 29.117 36.0675 26.8397 35.7869C24.5172 35.5005 22.1947 35.2146 19.8723 34.929C17.5382 34.6422 15.2037 34.3562 12.8696 34.0707C11.8326 33.9439 10.7951 33.8174 9.75722 33.6954C9.5499 33.6709 9.40112 33.6038 9.24742 33.4318C8.79347 32.9238 8.29261 32.4578 7.81632 31.9695C7.65771 31.8068 7.52725 31.8327 7.38293 31.9815C7.27525 32.0923 7.15685 32.1933 6.99109 32.3465C6.62516 31.402 6.26638 30.5218 5.942 29.6287C4.83752 26.5869 4.0163 23.4722 3.64591 20.2522C3.24424 16.7595 3.27372 13.2843 4.24551 9.87125C4.76067 8.06172 5.56223 6.39248 6.7516 4.91715C8.21531 3.10226 10.1491 2.10635 12.3987 1.69663L12.3991 1.69529ZM41.7216 32.9001C41.6461 32.8394 41.6122 32.8121 41.5777 32.7844C41.6126 32.7844 41.6483 32.7799 41.6819 32.7866C41.6917 32.7884 41.6953 32.8219 41.7221 32.9001H41.7216ZM41.5063 32.6866C41.4955 32.7009 41.4848 32.7147 41.4741 32.729C41.4285 32.6977 41.3829 32.666 41.3369 32.6347C41.2958 32.6066 41.2552 32.5784 41.2141 32.5503C41.1461 32.5043 41.0782 32.4578 41.0103 32.4118C40.9692 32.3769 40.9277 32.3421 40.8865 32.3072C40.8977 32.2934 40.9093 32.2791 40.9205 32.2652C40.9661 32.2992 41.0112 32.3331 41.0568 32.3675C41.1238 32.4118 41.1904 32.456 41.2569 32.5007C41.298 32.5288 41.3392 32.5565 41.3807 32.5847C41.4227 32.6186 41.4643 32.6526 41.5063 32.687V32.6866ZM40.1824 31.8037C40.1422 31.7898 40.102 31.776 40.0613 31.7621C40.0363 31.6017 40.0113 31.4409 39.9813 31.2514C40.173 31.2166 40.3334 31.1871 40.4983 31.1572C40.7244 31.6437 40.0528 31.423 40.1824 31.8032V31.8037ZM40.5121 31.9806C40.5725 32.0249 40.6332 32.0691 40.6935 32.1133C40.736 32.1464 40.7784 32.179 40.8204 32.2121C40.8093 32.2264 40.7981 32.2402 40.7874 32.2545C40.7422 32.2201 40.6971 32.1857 40.652 32.1513C40.5921 32.1156 40.5327 32.0794 40.4728 32.0432C40.4858 32.0222 40.4987 32.0016 40.5121 31.9806ZM8.06162 65.0093C8.06072 65.2479 8.06028 65.4869 8.06117 65.7255C8.06251 66.2769 7.95126 66.3542 7.38472 66.3631C6.54965 66.3761 5.71414 66.3738 4.87862 66.3653C3.97386 66.3564 3.06954 66.3385 2.16477 66.3144C1.86542 66.3064 1.74657 66.0888 1.8958 65.8185C2.01063 65.6102 2.14735 65.4114 2.29792 65.2269C3.07892 64.2681 3.8349 63.286 4.6655 62.3714C5.19183 61.7923 5.93932 61.6092 6.69933 61.7892C7.2538 61.9206 7.55718 62.4103 7.78639 62.8991C8.09959 63.5666 8.06921 64.2922 8.06117 65.0089L8.06162 65.0093ZM7.54735 61.8942C7.37355 61.7195 7.16757 61.5774 6.95579 61.405C9.76839 57.3315 12.5819 53.2567 15.4146 49.1538C15.8064 49.5117 16.1804 49.853 16.5865 50.2238C13.7534 54.3308 10.9301 58.423 8.08708 62.5443C7.88111 62.2928 7.73009 62.0779 7.54735 61.8942ZM16.8711 50.4866C17.6392 51.0786 18.3898 51.6567 19.1713 52.2586C16.247 56.4696 13.3289 60.6713 10.3573 64.9508C10.1298 63.765 9.71834 62.7686 9.00838 61.8839C11.6297 58.0839 14.2466 54.2906 16.8707 50.4866H16.8711ZM9.42971 65.9489C9.14466 65.9342 8.99096 66.0298 9.01732 66.3693C8.80777 66.3466 8.62324 66.3269 8.42576 66.3055C8.42576 65.8605 8.44318 65.4221 8.42174 64.9852C8.39135 64.3775 8.32344 63.7721 8.29172 63.1645C8.28502 63.0322 8.34086 62.8839 8.4061 62.7641C8.50752 62.5783 8.64201 62.4098 8.77471 62.2168C9.51773 63.1332 9.85506 64.1791 10.0244 65.2899C10.0646 65.5548 9.69377 65.9623 9.42971 65.9489ZM18.7026 54.304C16.0736 58.0902 13.442 61.8746 10.8184 65.6647C10.6566 65.8984 10.4926 66.0271 10.1553 65.9074C13.2717 61.4188 16.3774 56.9455 19.4947 52.4561C19.6055 52.528 19.6976 52.5874 19.8272 52.6714C19.4451 53.2263 19.0756 53.7665 18.7026 54.304ZM31.5181 65.5347C31.5998 65.6522 31.6727 65.7765 31.7567 65.9083C31.4336 66.0392 31.2875 65.8555 31.1468 65.6536C30.2782 64.4043 29.4092 63.1551 28.5397 61.9063C26.9567 59.6321 25.3733 57.3583 23.7907 55.0846C23.7331 55.0019 23.6799 54.9157 23.6245 54.8312C23.6562 54.7937 23.6875 54.7562 23.7192 54.7186C23.9332 54.8947 24.2004 55.0332 24.3537 55.2517C26.7507 58.6732 29.1331 62.1051 31.5181 65.5352V65.5347ZM30.6106 55.593C28.5916 55.8316 26.66 55.4456 24.7687 54.7664C21.9061 53.7379 19.392 52.1192 17.1097 50.1452C10.7755 44.6657 6.51391 37.7926 3.70846 29.9678C2.70272 27.1623 1.98337 24.2787 1.67553 21.3075C1.30424 17.7228 1.46419 14.182 2.66831 10.743C3.31304 8.90215 4.22809 7.21325 5.51531 5.73748C5.57429 5.66956 5.6422 5.60925 5.7061 5.54535L5.81243 5.44259C5.82539 5.42606 5.8379 5.40997 5.85086 5.39344L5.81333 5.44348C5.79411 5.49218 5.77535 5.54089 5.75614 5.58914C4.97826 6.82543 4.36302 8.13589 3.94169 9.53705C3.44842 11.1768 3.18034 12.8541 3.0825 14.56C2.73846 20.5613 4.11549 26.2366 6.34948 31.7483C6.43036 31.948 6.53803 32.1401 6.59388 32.3465C6.62918 32.477 6.57512 32.6294 6.59076 32.7688C6.6055 32.901 6.63052 33.0462 6.69933 33.1557C6.92049 33.5064 7.21359 33.8187 7.39142 34.1883C9.92298 39.4502 13.1667 44.2046 17.4127 48.2396C19.8008 50.5089 22.4284 52.4462 25.4626 53.7777C27.4335 54.6427 29.4807 55.2123 31.6521 55.2476C31.7451 55.249 31.8375 55.2767 31.93 55.2919C31.93 55.3232 31.9305 55.3549 31.9309 55.3862C31.4908 55.4559 31.0525 55.5403 30.6106 55.5926V55.593ZM33.3214 55.6399C33.2392 55.6976 33.173 55.778 33.0153 55.9277C32.4447 55.3053 31.8947 54.7052 31.3099 54.0672C31.4752 53.9247 31.6691 53.758 31.8465 53.6048C32.333 54.0779 32.8379 54.5672 33.3401 55.0587C33.5421 55.2561 33.5912 55.4509 33.3214 55.6399ZM40.622 49.3521C39.3983 51.6809 37.5914 53.3832 35.1108 54.3214C34.7105 54.4729 34.2784 54.5381 33.8678 54.6655C33.6404 54.7361 33.4835 54.69 33.3281 54.5136C33.211 54.3804 33.0546 54.2812 32.8795 54.1369C35.8065 51.7416 38.6588 49.4075 41.5112 47.073C41.5496 47.094 41.5885 47.115 41.6269 47.136C41.294 47.8759 40.9982 48.635 40.6216 49.3521H40.622ZM32.6556 53.8447C32.4818 53.6387 32.3366 53.4667 32.1642 53.2621C32.6449 52.8653 33.1476 52.4476 33.6529 52.0338C38.6222 47.9675 43.5924 43.9025 48.5603 39.834C48.7506 39.6781 48.9253 39.582 49.1979 39.6084C49.7358 39.6606 50.0066 39.3921 50.0334 38.868C50.037 38.7956 50.0464 38.6956 50.0933 38.6576C50.6719 38.1867 51.2581 37.7247 51.8608 37.2457C51.9944 37.3954 52.1133 37.5285 52.2611 37.6947C45.7263 43.0778 39.2088 48.4465 32.6556 53.8443V53.8447ZM53.3692 37.2479C53.1632 37.3587 52.9979 37.5446 52.7759 37.7273C52.502 37.3931 52.2343 37.067 51.9488 36.7185C52.1812 36.5263 52.3979 36.3905 52.5538 36.2038C52.6709 36.0639 52.7642 35.8611 52.7732 35.6819C52.8009 35.1203 52.7835 34.5569 52.7835 34.0064H54.3539C54.3539 34.4148 54.3066 34.803 54.3633 35.1757C54.5054 36.1073 54.2123 36.7944 53.3696 37.2479H53.3692ZM54.3682 33.4591C54.2431 33.7048 53.8495 33.7071 53.6306 33.489C53.2369 33.0981 53.2231 32.1911 53.6047 31.7956C53.8196 31.5731 54.2382 31.6357 54.4125 31.9511C54.5291 32.162 54.5765 32.4113 54.6663 32.6763C54.568 32.9408 54.4933 33.2129 54.3682 33.4586V33.4591Z" fill="#221F20" stroke="black" stroke-width="0.3"/>
<path d="M1.37517 66.5209C1.37874 66.5258 1.38232 66.5303 1.38634 66.5352C1.3908 66.5423 1.39483 66.5499 1.39929 66.5571C1.40287 66.5173 1.40019 66.4726 1.38902 66.4208L1.37874 66.4159C1.35551 66.3806 1.33272 66.3457 1.30949 66.3104H1.30859C1.33585 66.3792 1.35819 66.4489 1.37472 66.5209H1.37517Z" fill="#221F20" stroke="black" stroke-width="0.3"/>
</svg>
