<?xml version="1.0" encoding="UTF-8"?>
<svg id="Layer_1" data-name="Layer 1" xmlns="http://www.w3.org/2000/svg" version="1.1" viewBox="0 0 30 31">
  <defs>
    <style>
      .cls-1 {
        fill: #fff;
        stroke: #000;
      }

      .cls-2 {
        fill: #000;
        stroke-width: 0px;
      }
    </style>
  </defs>
  <path class="cls-1" d="M23.2,23.8h.1c0,0,0-.2,0-.2l3.2-5.6,2.9,5.3-6.5,6.5-4-3.3,4.3-2.7Z"/>
  <path class="cls-1" d="M6,30l-1.5-3,1.5-3h16.5v6H6Z"/>
  <path class="cls-1" d="M7.1,7.1h-.5v17.1l-3.1,1.4-3.1-1.4V2.9c0-1,.8-1.9,1.9-1.9h21.7l1.4,3.1-1.4,3.1H7.1Z"/>
  <path class="cls-1" d="M.5,28.1v-4.2h6.1v6.1H2.4c-1,0-1.9-.8-1.9-1.9Z"/>
  <path class="cls-1" d="M29.5,23h-6V5.4l3-1.4,3,1.4v17.6Z"/>
  <path class="cls-1" d="M29.5,2.9v4.2h-6.1V1h4.2c1,0,1.9.8,1.9,1.9Z"/>
  <g>
    <path class="cls-2" d="M15.9,17.5c0,.8-.3,1.5-.9,2.1-.6.6-1.4.8-2.3.8s-1.4-.2-1.9-.6c-.6-.4-1-1-1.2-1.7l1.2-.5c.1.5.4.9.7,1.2s.7.4,1.2.4,1-.2,1.3-.5c.4-.3.6-.7.6-1.2s-.2-.9-.6-1.2c-.4-.3-.8-.5-1.4-.5h-.8v-1.2h.7c.5,0,.9-.1,1.2-.4s.5-.6.5-1.1-.2-.8-.5-1c-.3-.3-.7-.4-1.2-.4-.8,0-1.4.4-1.6,1.2l-1.2-.5c.2-.6.6-1.1,1.1-1.4s1.1-.5,1.8-.5,1.5.2,2.1.7c.6.5.8,1.1.8,1.9s-.4,1.6-1.3,2h0c.5.3.9.6,1.2,1s.4.9.4,1.4Z"/>
    <path class="cls-2" d="M20.4,10.8v9.5h-1.3v-7.9l-1.8.8-.5-1.1,2.8-1.3h.8Z"/>
  </g>
</svg>