<svg xmlns="http://www.w3.org/2000/svg" xmlns:xlink="http://www.w3.org/1999/xlink" viewBox="0 0 2560 825" width="2560" height="825" preserveAspectRatio="xMidYMid meet" style="width: 100%; height: 100%; transform: translate3d(0px, 0px, 0px); content-visibility: visible;"><defs><clipPath id="__lottie_element_80"><rect width="2560" height="825" x="0" y="0"></rect></clipPath></defs><g clip-path="url(#__lottie_element_80)"><g transform="matrix(1.75,0,0,1.75,-18.262451171875,3.76702880859375)" opacity="1" style="display: block;"><g opacity="1" transform="matrix(1,0,0,1,0,0)"><path stroke-linecap="butt" stroke-linejoin="miter" fill-opacity="0" stroke-miterlimit="4" stroke="rgb(255,255,255)" stroke-opacity="1" stroke-width="1.5" d=" M600.75,455.2430114746094 C600.75,455.2430114746094 1480.75,455.2430114746094 1480.75,455.2430114746094"></path></g><g opacity="1" transform="matrix(1,0,0,1,302.5769958496094,242.45599365234375)"><path stroke-linecap="butt" stroke-linejoin="miter" fill-opacity="0" stroke-miterlimit="10" stroke="rgb(255,255,255)" stroke-opacity="1" stroke-width="1.5" d=" M-298.8269958496094,212.6230010986328 C-298.8269958496094,212.6230010986328 -239.33399963378906,212.6230010986328 -239.33399963378906,212.6230010986328 C-231.73300170898438,212.6230010986328 -225.59300231933594,206.41700744628906 -225.6739959716797,198.81700134277344 C-226.25,147.17300415039062 -228.05999755859375,-31.993999481201172 -225.08399963378906,-36.45800018310547 C-222.697998046875,-40.0359992980957 -159.46400451660156,-56.027000427246094 -154.4510040283203,-57.98400115966797 C-149.4499969482422,-59.941001892089844 -131.1790008544922,-53.62799835205078 -127.29100036621094,-53.85599899291992 C-122.35800170898438,-54.1510009765625 -121.20500183105469,-105.80799865722656 -121.20500183105469,-116.19599914550781 C-121.20500183105469,-126.58399963378906 -152.4929962158203,-119.38600158691406 -152.4929962158203,-116.47799682617188 C-152.4929962158203,-102.24299621582031 -152.4929962158203,-54.43199920654297 -149.02099609375,-54.43199920654297 C-133.83299255371094,-54.43199920654297 -89.3270034790039,-52.689998626708984 -93.68399810791016,-58.78799819946289 C-98.04100036621094,-64.88700103759766 -109.0459976196289,-72.125 -118.60399627685547,-66.91100311279297 C-128.17599487304688,-61.696998596191406 -131.6479949951172,-48.92300033569336 -111.36599731445312,-49.80799865722656 C-60.0629997253418,-52.00600051879883 30.89299964904785,-47.784000396728516 37.849998474121094,-47.784000396728516 C44.80799865722656,-47.784000396728516 38.72200012207031,-119.11799621582031 37.849998474121094,-127.81700134277344 C36.979000091552734,-136.51600646972656 -67.31500244140625,-135.6580047607422 -71.6719970703125,-128.68800354003906 C-76.02899932861328,-121.73200225830078 -74.48699951171875,-52.12699890136719 -65.58599853515625,-52.12699890136719 C-43.85599899291992,-52.98400115966797 38.72200012207031,-45.16999816894531 48.292999267578125,-46.91299819946289 C57.86399841308594,-48.654998779296875 74.36699676513672,-55.61199951171875 70.02300262451172,-57.354000091552734 C65.68000030517578,-59.09600067138672 36.12099838256836,-73.01000213623047 34.37799835205078,-64.31099700927734 C32.6349983215332,-55.61199951171875 85.66699981689453,-62.56800079345703 98.71099853515625,-62.56800079345703 C111.75399780273438,-62.56800079345703 125.65599822998047,-58.21200180053711 130.8699951171875,-60.82600021362305 C136.0850067138672,-63.43899917602539 136.51400756835938,-66.92400360107422 142.60000610351562,-65.18199920654297 C145.1739959716797,-64.44499969482422 146.50100708007812,-64.72599792480469 147.0780029296875,-65.6240005493164 C147.86900329589844,-66.84400177001953 147.26499938964844,-69.2030029296875 146.50100708007812,-71.70899963378906 C145.2010040283203,-76.06600189208984 151.7830047607422,-78.9739990234375 145.05299377441406,-80.98500061035156 C139.26199340820312,-82.72699737548828 135.62899780273438,-82.00299835205078 125.34700012207031,-87.66000366210938 C115.06500244140625,-93.31600189208984 113.47000122070312,-87.37799835205078 121.72799682617188,-81.27999877929688 C129.98599243164062,-75.18099975585938 163.4459991455078,-56.334999084472656 157.802001953125,-57.64899826049805 C156.08599853515625,-58.03799819946289 117.96099853515625,-80.69000244140625 115.34700012207031,-68.66699981689453 C115.10600280761719,-67.59400177001953 138.69900512695312,-62.55500030517578 138.3769989013672,-64.47100067138672 C137.50599670410156,-69.5510025024414 119.677001953125,-73.16999816894531 116.92900085449219,-75.63700103759766 C112.5719985961914,-79.5510025024414 120.34700012207031,-89.52300262451172 118.37699890136719,-90.43399810791016 C117.74700164794922,-90.71600341796875 111.56700134277344,-87.5260009765625 114.0199966430664,-84.49600219726562 C115.85600280761719,-82.23100280761719 112.81300354003906,-83.47799682617188 111.25800323486328,-81.15899658203125 C109.81099700927734,-78.98799896240234 111.09700012207031,-77.74099731445312 110.68199920654297,-75.22100067138672 C110.26599884033203,-72.70099639892578 110.91000366210938,-71.10600280761719 111.25800323486328,-68.98799896240234 C111.40599822998047,-68.11699676513672 113.02799987792969,-65.89199829101562 112.42500305175781,-63.198001861572266 C112.14299774169922,-61.88399887084961 98.25499725341797,-62.233001708984375 103.0009994506836,-68.98799896240234 C104.40799713134766,-70.9990005493164 116.9020004272461,-86.09200286865234 96.91400146484375,-87.83399963378906 C76.91400146484375,-89.57599639892578 67.50299835205078,-88.70500183105469 67.0739974975586,-98.7040023803711 C66.6449966430664,-108.7030029296875 65.1969985961914,-118.1259994506836 62.58300018310547,-123.7959976196289 C61.85900115966797,-125.36399841308594 58.2400016784668,-139.00900268554688 59.111000061035156,-136.11399841308594 C62.301998138427734,-125.39099884033203 70.9209976196289,-119.4800033569336 73.58899688720703,-119.1449966430664 C77.20899963378906,-118.71600341796875 85.61399841308594,-117.12100219726562 86.19000244140625,-120.88700103759766 C86.80699920654297,-124.8550033569336 87.2760009765625,-127.17400360107422 86.61900329589844,-128.5679931640625 C84.30000305175781,-133.5 60.92100143432617,-133.19200134277344 58.2130012512207,-140.73800659179688 C49.80799865722656,-164.23500061035156 74.59400177001953,-162.7740020751953 77.19499969482422,-172.0489959716797 C79.7959976196289,-181.3249969482422 59.527000427246094,-173.93899536132812 48.22600173950195,-171.3249969482422 C36.92499923706055,-168.72500610351562 30.839000701904297,-153.927001953125 34.32500076293945,-145.65699768066406 C37.797000885009766,-137.38699340820312 32.15299987792969,-81.27999877929688 44.75400161743164,-76.06600189208984 C57.35499954223633,-70.85199737548828 58.22600173950195,-58.667999267578125 79.08499908447266,-54.31100082397461 C99.94400024414062,-49.95500183105469 130.80299377441406,-46.92599868774414 139.06100463867188,-48.2130012512207 C147.31900024414062,-49.51300048828125 207.50900268554688,-57.944000244140625 215.33799743652344,-57.99700164794922 C220.64700317382812,-58.03799819946289 222.9250030517578,-56.89799880981445 224.6820068359375,-56.683998107910156 C237.0679931640625,-55.2760009765625 235.01699829101562,-54.391998291015625 239.45399475097656,-56.14799880981445 C240.51300048828125,-56.5629997253418 239.41400146484375,-55.93299865722656 240.43299865722656,-55.49100112915039 C244.88400268554688,-53.534000396728516 251.8280029296875,-65.06099700927734 251.76100158691406,-66.25399780273438 C251.70700073242188,-67.32599639892578 249.72300720214844,-68.93499755859375 249.50799560546875,-69.87300109863281 C248.75799560546875,-73.34500122070312 245.6739959716797,-70.39600372314453 243.86500549316406,-74.7249984741211 C242.89999389648438,-77.04399871826172 238.51600646972656,-76.33399963378906 238.07400512695312,-77.98200225830078 C237.63099670410156,-79.63099670410156 236.70599365234375,-82.83399963378906 233.7969970703125,-82.5530014038086 C227.75100708007812,-81.94999694824219 230.9550018310547,-82.82099914550781 223.47500610351562,-77.43299865722656 C215.0030059814453,-71.33399963378906 199.1439971923828,-67.5270004272461 199.572998046875,-61.54899978637695 C199.8679962158203,-57.500999450683594 205.65899658203125,-61.66999816894531 212.7239990234375,-62.957000732421875 C220.4320068359375,-64.36399841308594 220.83399963378906,-68.1709976196289 222.1479949951172,-69.48400115966797 C223.447998046875,-70.7979965209961 232.80499267578125,-83.9739990234375 223.80999755859375,-84.56300354003906 C218.7429962158203,-84.88500213623047 195.552001953125,-94.28099822998047 189.9080047607422,-101.23799896240234 C184.26400756835938,-108.19400024414062 177.73599243164062,-118.20700073242188 174.6929931640625,-125.16300201416016 C171.64999389648438,-132.1199951171875 162.30599975585938,-145.71099853515625 159.26300048828125,-150.49600219726562 C158.2310028076172,-152.1179962158203 147.31900024414062,-128.97000122070312 149.9199981689453,-121.02100372314453 C150.7239990234375,-118.54199981689453 161.22000122070312,-146.68899536132812 157.8560028076172,-150.8179931640625 C156.42100524902344,-152.58700561523438 141.5679931640625,-158.52499389648438 137.1840057373047,-160.68299865722656 C135.8040008544922,-161.36599731445312 117.83999633789062,-138.23199462890625 115.89700317382812,-136.90499877929688 C97.91999816894531,-124.72100067138672 140.16000366210938,-159.77099609375 139.2220001220703,-159.81199645996094 C137.09100341796875,-159.91900634765625 133.552001953125,-160.7100067138672 133.45799255371094,-161.8090057373047 C133.4040069580078,-162.45199584960938 133.89999389648438,-163.59100341796875 135.16000366210938,-165.61500549316406 C139.51699829101562,-172.57200622558594 142.2519989013672,-180.10499572753906 144.86599731445312,-181.41799926757812 C147.47999572753906,-182.73199462890625 147.66700744628906,-185.70799255371094 150.22799682617188,-193.3070068359375 C153.41799926757812,-202.74400329589844 146.46099853515625,-204.3249969482422 151.2469940185547,-203.02499389648438 C152.26499938964844,-202.7570037841797 152.3459930419922,-200.66600036621094 153.1230010986328,-201.00100708007812 C156.0590057373047,-202.19400024414062 159.61199951171875,-204.6199951171875 155.1479949951172,-212.16600036621094 C149.50399780273438,-221.73699951171875 139.6510009765625,-238.70599365234375 129.6510009765625,-236.52099609375 C119.6500015258789,-234.33599853515625 110.23899841308594,-237.96800231933594 105.60099792480469,-233.03599548339844 C100.38700103759766,-227.48699951171875 93.7239990234375,-212.7429962158203 94.30000305175781,-210.4239959716797 C95.11799621582031,-207.1269989013672 96.31099700927734,-214.14999389648438 100.81500244140625,-207.80999755859375 C106.1780014038086,-200.27699279785156 100.38700103759766,-186.9409942626953 103.85900115966797,-192.7310028076172 C105.0250015258789,-194.66099548339844 110.81600189208984,-206.0679931640625 115.15899658203125,-210.86599731445312 C119.51599884033203,-215.6510009765625 122.11699676513672,-219.99400329589844 136.01800537109375,-212.60899353027344 C149.9199981689453,-205.22300720214844 154.55799865722656,-200.86700439453125 155.4290008544922,-204.76800537109375 C156.28700256347656,-208.68099975585938 137.17100524902344,-225.20799255371094 128.48399353027344,-223.46600341796875 C119.7979965209961,-221.72300720214844 117.31800079345703,-219.552001953125 115.15899658203125,-216.50900268554688 C112.98799896240234,-213.4669952392578 105.15899658203125,-190.41200256347656 105.15899658203125,-197.81100463867188 C105.15899658203125,-205.2100067138672 99.11299896240234,-213.6540069580078 95.15799713134766,-207.38099670410156 C91.96800231933594,-202.30099487304688 92.98699951171875,-193.89700317382812 94.28700256347656,-189.5540008544922 C95.58699798583984,-185.21200561523438 101.32499694824219,-188.75 97.90699768066406,-180.57400512695312 C95.73500061035156,-175.36000061035156 105.5739974975586,-155.6300048828125 110.50800323486328,-152.60000610351562 C119.78399658203125,-146.8769989013672 130.50799560546875,-160.13299560546875 130.50799560546875,-160.13299560546875 C130.50799560546875,-160.13299560546875 124.71700286865234,-154.34300231933594 117.76000213623047,-149.98699951171875 C110.8030014038086,-145.63099670410156 112.8270034790039,-152.8419952392578 109.93099975585938,-136.07400512695312 C106.88800048828125,-118.46099853515625 109.93099975585938,-103.677001953125 107.10299682617188,-88.00800323486328 C105.36000061035156,-78.35800170898438 107.10299682617188,-121.29000091552734 107.9739990234375,-128.24600219726562 C108.84500122070312,-135.2030029296875 109.48899841308594,-146.51499938964844 106.45899963378906,-149.55799865722656 C103.43000030517578,-152.58700561523438 100.37300109863281,-159.57000732421875 98.62999725341797,-150.4290008544922 C96.88800048828125,-141.30099487304688 93.87100219726562,-139.11599731445312 92.10199737548828,-144.0489959716797 C90.65399932861328,-148.11000061035156 84.71600341796875,-157.5330047607422 86.88700103759766,-167.08999633789062 C89.05899810791016,-176.64700317382812 94.4209976196289,-183.48300170898438 94.4209976196289,-186.51199340820312 C94.4209976196289,-189.54100036621094 95.1449966430664,-198.6820068359375 81.6729965209961,-183.468994140625 C71.48400115966797,-171.9550018310547 76.75299835205078,-177.73199462890625 70.81400299072266,-170.1320037841797 C66.61799621582031,-164.77099609375 75.30500030517578,-168.68499755859375 76.1760025024414,-160.4149932861328 C77.03399658203125,-152.14500427246094 81.81999969482422,-155.48199462890625 84.00499725341797,-140.25599670410156 C86.19000244140625,-125.02899932861328 89.55500030517578,-114.97599792480469 86.177001953125,-95.46099853515625 C84.8759994506836,-87.9280014038086 109.50199890136719,-85.16699981689453 109.50199890136719,-85.16699981689453 C109.50199890136719,-85.16699981689453 123.83300018310547,-97.71199798583984 127.74700164794922,-107.68499755859375 C128.55099487304688,-109.7490005493164 128.927001953125,-111.71900177001953 128.6179962158203,-113.4219970703125 C126.8759994506836,-123.4209976196289 128.33700561523438,-120.37799835205078 138.32400512695312,-120.37799835205078 C142.07699584960938,-120.37799835205078 147.5330047607422,-121.0479965209961 148.9010009765625,-118.48799896240234 C150.06700134277344,-116.31700134277344 150.73699951171875,-109.56099700927734 149.9199981689453,-109.21299743652344 C146.79600524902344,-107.83200073242188 144.03500366210938,-105.0979995727539 141.36700439453125,-104.57499694824219 C137.60000610351562,-103.85099792480469 128.91299438476562,-111.70600128173828 128.91299438476562,-111.70600128173828 C128.91299438476562,-111.70600128173828 124.7979965209961,-89.88500213623047 131.7949981689453,-86.15899658203125 C136.4340057373047,-83.70600128173828 145.26800537109375,-81.802001953125 146.4340057373047,-90.94400024414062 C148.13699340820312,-104.3740005493164 148.6060028076172,-118.63600158691406 151.6490020751953,-105.1520004272461 C154.69200134277344,-91.66699981689453 146.0050048828125,-90.80999755859375 163.8209991455078,-79.48300170898438 C181.63699340820312,-68.1709976196289 180.33599853515625,-65.14199829101562 189.03700256347656,-65.56999969482422 C197.72300720214844,-65.9990005493164 184.947998046875,-60.87900161743164 201.42300415039062,-58.61399841308594 C239.45399475097656,-53.400001525878906 291.60101318359375,-44.70100021362305 297.68798828125,-38.17300033569336 C298.43798828125,-37.382999420166016 298.74700927734375,-33.0260009765625 298.70599365234375,-26.003000259399414 C298.70599365234375,-23.992000579833984 -226.69200134277344,-26.12299919128418 -226.75900268554688,-23.68400001525879 C-226.8260040283203,-21.017000198364258 298.3580017089844,-23.924999237060547 298.2640075683594,-20.774999618530273 C296.0790100097656,42.167999267578125 298.8269958496094,195.1840057373047 298.07598876953125,214.16400146484375 C298.04901123046875,214.9550018310547 298.0090026855469,215.531005859375 297.95599365234375,215.83900451660156 C296.3340148925781,227.03199768066406 286.3599853515625,218.1580047607422 274.4830017089844,222.79600524902344 C247.8459930419922,233.21099853515625 182.91000366210938,171.47300720214844 172.052001953125,173.64500427246094 C161.19400024414062,175.8159942626953 158.57899475097656,186.6999969482422 143.79299926757812,167.98800659179688 C129.0070037841797,149.2899932861328 124.677001953125,143.2050018310547 124.677001953125,143.2050018310547 C124.677001953125,143.2050018310547 123.80599975585938,110.875 126.99600219726562,115.23200225830078 C133.48399353027344,124.09100341796875 135.5489959716797,130.6060028076172 142.06399536132812,123.64900207519531 C148.57899475097656,116.69300079345703 150.75100708007812,105.37999725341797 155.53599548339844,114.52100372314453 C160.32200622558594,123.66200256347656 159.00799560546875,127.57599639892578 162.49400329589844,132.7899932861328 C165.96600341796875,138.00399780273438 175.53700256347656,152.36000061035156 175.53700256347656,156.28700256347656 C175.53700256347656,160.21400451660156 181.6230010986328,165.4149932861328 179.00900268554688,168.89999389648438 C176.39500427246094,172.38499450683594 173.36599731445312,182.38400268554688 161.19400024414062,171.51400756835938 C149.02099609375,160.64300537109375 132.21099853515625,148.6199951171875 136.35299682617188,146.4219970703125 C140.05299377441406,144.46499633789062 139.23500061035156,134.50599670410156 138.69900512695312,134.07699584960938 C138.2570037841797,133.72900390625 137.38499450683594,135.56500244140625 136.28599548339844,139.0229949951172 C135.18699645996094,142.4810028076172 127.26399993896484,130.41799926757812 126.58100128173828,127.41500091552734 C125.41400146484375,122.33499908447266 123.68499755859375,132.4949951171875 129.77099609375,140.4709930419922 C135.85699462890625,148.4459991455078 140.93800354003906,150.2550048828125 141.218994140625,145.4029998779297 C142.22500610351562,127.91100311279297 133.2830047607422,127.70999908447266 130.7899932861328,118.86399841308594 C129.57000732421875,114.53500366210938 132.98800659179688,112.6449966430664 133.4040069580078,110.45999908447266 C134.70399475097656,103.50299835205078 139.11500549316406,99.16100311279297 135.5760040283203,97.552001953125 C128.8459930419922,94.51000213623047 122.76000213623047,88.625 134.91900634765625,93.85299682617188 C157.92300415039062,103.71800231933594 159.47799682617188,105.80899810791016 162.9499969482422,101.03700256347656 C163.9010009765625,99.7239990234375 164.75900268554688,98.02100372314453 165.4969940185547,96.09100341796875 C166.3280029296875,93.91999816894531 166.19400024414062,93.18299865722656 168.5659942626953,92.39199829101562 C169.22300720214844,92.16400146484375 168.875,71.85700225830078 171.02000427246094,57.15299987792969 C171.7969970703125,51.84600067138672 177.1999969482422,36.80699920654297 177.9770050048828,35.547000885009766 C179.14300537109375,33.65700149536133 180.51100158691406,111.07599639892578 182.0260009765625,120.86100006103516 C182.36099243164062,123.05899810791016 180.09500122070312,122.36199951171875 176.1540069580078,121.29000091552734 C174.47799682617188,120.83399963378906 170.42999267578125,58.33300018310547 170.42999267578125,56.41600036621094 C170.42999267578125,52.060001373291016 171.2740020751953,59.270999908447266 173.781005859375,49.6879997253418 C176.40899658203125,39.68899917602539 178.13800048828125,29.676000595092773 178.99600219726562,19.677000045776367 C179.85400390625,9.663999557495117 185.94000244140625,-2.2109999656677246 183.031005859375,-7.117000102996826 C180.1219940185547,-12.02299976348877 151.38099670410156,-3.3239998817443848 144.6510009765625,14.020999908447266 C145.69700622558594,20.427000045776367 121.01699829101562,15.90999984741211 114.4489974975586,15.97700023651123 C96.4990005493164,16.13800048828125 79.0719985961914,16.365999221801758 68.1729965209961,16.7549991607666 C62.50299835205078,16.95599937438965 58.2130012512207,-1.1119999885559082 57.30099868774414,4.020999908447266 C49.04399871826172,5.763999938964844 46.87200164794922,8.805999755859375 47.30099868774414,18.819000244140625 C47.72999954223633,28.81800079345703 51.20199966430664,29.68899917602539 52.94499969482422,41.430999755859375 C54.6870002746582,53.17300033569336 54.80799865722656,50.143001556396484 58.279998779296875,59.270999908447266 C58.279998779296875,59.270999908447266 62.66400146484375,66.49600219726562 63.25299835205078,73.18399810791016 C63.25299835205078,73.18399810791016 65.77400207519531,71.10700225830078 66.9000015258789,75.78500366210938 C67.26200103759766,77.27200317382812 68.03900146484375,80.61000061035156 69.01799774169922,84.56400299072266 C69.16500091552734,85.16699981689453 69.31300354003906,85.7699966430664 69.4739990234375,86.4000015258789 C71.49800109863281,94.55000305175781 73.81700134277344,99.4020004272461 73.81700134277344,101.86799621582031 C73.81700134277344,109.89700317382812 62.676998138427734,115.68699645996094 60.4379997253418,129.06399536132812 C58.5880012512207,140.1219940185547 44.16400146484375,145.33599853515625 35.47700119018555,145.33599853515625 C26.791000366210938,145.33599853515625 24.110000610351562,144.8939971923828 22.996999740600586,136.6510009765625 C22.71500015258789,134.58599853515625 23.090999603271484,131.77200317382812 23.827999114990234,128.63499450683594 C23.961999893188477,128.08599853515625 24.09600067138672,127.53600311279297 24.243999481201172,126.9729995727539 C26.656999588012695,117.80500030517578 31.562999725341797,106.6259994506836 32.354000091552734,102.99400329589844 C33.46699905395508,97.8740005493164 34.3650016784668,89.61699676513672 34.80699920654297,84.26899719238281 C35.25,78.9209976196289 34.80699920654297,76.46800231933594 42.60900115966797,76.69599914550781 C50.4109992980957,76.92400360107422 54.41899871826172,77.13800048828125 54.20500183105469,82.27200317382812 C53.9900016784668,87.40599822998047 54.875,96.31900024414062 59.111000061035156,103.66400146484375 C63.34700012207031,111.00900268554688 62.44900131225586,111.02300262451172 65.12999725341797,103.43599700927734 C67.81099700927734,95.8499984741211 68.25399780273438,94.52300262451172 68.46800231933594,91.84200286865234 C68.68299865722656,89.16100311279297 67.7979965209961,85.59600067138672 67.35600280761719,84.71099853515625 C66.91300201416016,83.8270034790039 67.7979965209961,96.5199966430664 64.01799774169922,98.75800323486328 C60.23699951171875,100.99700164794922 58.83000183105469,95.68900299072266 56.65800094604492,93.18299865722656 C53.762001037597656,89.84500122070312 52.86399841308594,97.86000061035156 55.54499816894531,104.54900360107422 C58.22600173950195,111.23699951171875 54.875,118.59600067138672 49.96900177001953,124.15799713134766 C38.97600173950195,136.6510009765625 23.66699981689453,135.88699340820312 26.791000366210938,127.28099822998047 C31.4689998626709,114.36000061035156 33.69499969482422,85.15399932861328 37.2599983215332,83.15699768066406 C40.82600021362305,81.15899658203125 53.09199905395508,84.71099853515625 58.882999420166016,81.81600189208984 C64.67400360107422,78.9209976196289 60.66600036621094,76.23999786376953 59.99599838256836,71.79000091552734 C59.99599838256836,71.79000091552734 58.803001403808594,62.207000732421875 58.803001403808594,62.207000732421875 C55.46500015258789,68.88200378417969 42.08599853515625,78.33100128173828 35.25,73.572998046875 C28.413000106811523,68.81500244140625 13.02299976348877,40.465999603271484 10.85200023651123,37.0880012512207 C9.13599967956543,34.448001861572266 17.393999099731445,46.37699890136719 17.232999801635742,47.529998779296875 C14.779000282287598,63.47999954223633 10.503000259399414,110.88899993896484 10.932000160217285,119.73500061035156 C11.105999946594238,123.27400207519531 7.326000213623047,121.53099822998047 5.435999870300293,121.69200134277344 C3.2909998893737793,121.87999725341797 10.140999794006348,35.89500045776367 9.711999893188477,35.49300003051758 C7.5,33.41600036621094 5.90500020980835,30.427000045776367 6.065999984741211,26.9950008392334 C6.494999885559082,17.867000579833984 0.23499999940395355,19.52899932861328 -0.6230000257492065,6.48799991607666 C-1.4809999465942383,-6.553999900817871 16.990999221801758,-5.321000099182129 16.990999221801758,-5.321000099182129 C16.990999221801758,-5.321000099182129 180.45700073242188,-16.7810001373291 184.38499450683594,-2.4260001182556152 C188.31300354003906,11.930000305175781 146.7830047607422,-15.96399974822998 143.74000549316406,4.047999858856201 C140.69700622558594,24.059999465942383 139.8249969482422,36.22999954223633 136.78199768066406,53.62799835205078 C133.73899841308594,71.0260009765625 134.61099243164062,71.45500183105469 134.61099243164062,84.08100128173828 C134.61099243164062,96.70800018310547 152.26499938964844,10.079999923706055 151.83700561523438,2.252000093460083 C151.7429962158203,0.5099999904632568 119.89099884033203,0.3619999885559082 93.3219985961914,-0.30799999833106995 C39.64699935913086,-1.6890000104904175 -52.099998474121094,-1.5410000085830688 -117.46499633789062,-2.319000005722046 C-120.4010009765625,-2.3589999675750732 -115.18599700927734,129.63999938964844 -118.04100036621094,129.61399841308594 C-122.72000122070312,129.55999755859375 -127.2509994506836,129.52000427246094 -131.66099548339844,129.47999572753906 C-134.52999877929688,129.4530029296875 -134.14100646972656,-2.6540000438690186 -136.87600708007812,-2.6670000553131104 C-168.74099731445312,-2.881999969482422 -191.1009979248047,-2.694000005722046 -193.95599365234375,-2.0369999408721924 C-205.2570037841797,0.5770000219345093 -196.1280059814453,211.95199584960938 -196.1280059814453,211.95199584960938 C-196.1280059814453,211.95199584960938 -198.5679931640625,238.70599365234375 -201.67799377441406,220.43699645996094 C-204.78799438476562,202.16799926757812 -186.51600646972656,20.30699920654297 -185.6320037841797,5.603000164031982 C-184.7469940185547,-9.10099983215332 273.531005859375,-23.81800079345703 278.43701171875,-8.215999603271484 C282.5660095214844,4.946000099182129 283.531005859375,153.0030059814453 283.7330017089844,199.07200622558594 C283.7590026855469,206.59100341796875 289.87200927734375,212.66299438476562 297.39300537109375,212.66299438476562"></path></g></g></g></svg>