<svg width="21" height="22" viewBox="0 0 21 22" fill="none" xmlns="http://www.w3.org/2000/svg">
<path d="M6.07227 4.58327C6.07203 5.0695 5.88744 5.53572 5.55908 5.87937C5.23073 6.22301 4.78552 6.41593 4.32139 6.41569C3.85726 6.41545 3.41223 6.22206 3.08421 5.87807C2.75619 5.53408 2.57203 5.06767 2.57227 4.58144C2.5725 4.09521 2.75709 3.62899 3.08545 3.28535C3.4138 2.9417 3.85901 2.74878 4.32314 2.74902C4.78727 2.74927 5.2323 2.94265 5.56032 3.28664C5.88835 3.63063 6.0725 4.09704 6.07227 4.58327ZM6.12477 7.77327H2.62477V19.2499H6.12477V7.77327ZM11.6548 7.77327H8.17227V19.2499H11.6198V13.2274C11.6198 9.87244 15.7935 9.56077 15.7935 13.2274V19.2499H19.2498V11.9808C19.2498 6.32494 13.0723 6.53577 11.6198 9.31327L11.6548 7.77327Z" fill="white"/>
<path d="M6.12477 7.77327H6.62477V7.27327H6.12477V7.77327ZM2.62477 7.77327V7.27327H2.12477V7.77327H2.62477ZM2.62477 19.2499H2.12477V19.7499H2.62477V19.2499ZM6.12477 19.2499V19.7499H6.62477V19.2499H6.12477ZM11.6548 7.77327L12.1546 7.78463L12.1663 7.27327H11.6548V7.77327ZM8.17227 7.77327V7.27327H7.67227V7.77327H8.17227ZM8.17227 19.2499H7.67227V19.7499H8.17227V19.2499ZM11.6198 19.2499V19.7499H12.1198V19.2499H11.6198ZM15.7935 19.2499H15.2935V19.7499H15.7935V19.2499ZM19.2498 19.2499V19.7499H19.7498V19.2499H19.2498ZM11.6198 9.31327L11.1199 9.30191C11.1146 9.53416 11.27 9.73946 11.495 9.79745C11.7199 9.85543 11.9552 9.75084 12.0628 9.54498L11.6198 9.31327ZM5.57227 4.58303C5.57209 4.94397 5.43485 5.28563 5.19758 5.53395L5.92059 6.22479C6.34002 5.78582 6.57197 5.19504 6.57227 4.58351L5.57227 4.58303ZM5.19758 5.53395C4.96106 5.78148 4.64547 5.91586 4.32165 5.91569L4.32113 6.91569C4.92557 6.91601 5.5004 6.66454 5.92059 6.22479L5.19758 5.53395ZM4.32165 5.91569C3.99784 5.91552 3.68236 5.78081 3.44606 5.53301L2.72236 6.22313C3.14211 6.66331 3.71669 6.91537 4.32113 6.91569L4.32165 5.91569ZM3.44606 5.53301C3.20901 5.28443 3.07209 4.94261 3.07227 4.58168L2.07227 4.5812C2.07197 5.19273 2.30336 5.78374 2.72236 6.22313L3.44606 5.53301ZM3.07227 4.58168C3.07244 4.22075 3.20968 3.87909 3.44695 3.63076L2.72394 2.93993C2.30451 3.3789 2.07256 3.96967 2.07227 4.5812L3.07227 4.58168ZM3.44695 3.63076C3.68347 3.38323 3.99906 3.24885 4.32288 3.24902L4.3234 2.24902C3.71896 2.24871 3.14413 2.50017 2.72394 2.93993L3.44695 3.63076ZM4.32288 3.24902C4.6467 3.24919 4.96218 3.38391 5.19847 3.6317L5.92217 2.94159C5.50242 2.5014 4.92784 2.24934 4.3234 2.24902L4.32288 3.24902ZM5.19847 3.6317C5.43552 3.88029 5.57244 4.2221 5.57227 4.58303L6.57227 4.58351C6.57256 3.97198 6.34117 3.38098 5.92217 2.94159L5.19847 3.6317ZM6.12477 7.27327H2.62477V8.27327H6.12477V7.27327ZM2.12477 7.77327V19.2499H3.12477V7.77327H2.12477ZM2.62477 19.7499H6.12477V18.7499H2.62477V19.7499ZM6.62477 19.2499V7.77327H5.62477V19.2499H6.62477ZM11.6548 7.27327H8.17227V8.27327H11.6548V7.27327ZM7.67227 7.77327V19.2499H8.67227V7.77327H7.67227ZM8.17227 19.7499H11.6198V18.7499H8.17227V19.7499ZM12.1198 19.2499V13.2274H11.1198V19.2499H12.1198ZM12.1198 13.2274C12.1198 11.7771 12.9904 11.1214 13.7253 11.094C14.103 11.0799 14.4806 11.2225 14.77 11.5436C15.0607 11.866 15.2935 12.405 15.2935 13.2274H16.2935C16.2935 12.2166 16.0046 11.4196 15.5127 10.874C15.0196 10.327 14.3537 10.0698 13.688 10.0947C12.336 10.1451 11.1198 11.3228 11.1198 13.2274H12.1198ZM15.2935 13.2274V19.2499H16.2935V13.2274H15.2935ZM15.7935 19.7499H19.2498V18.7499H15.7935V19.7499ZM19.7498 19.2499V11.9808H18.7498V19.2499H19.7498ZM19.7498 11.9808C19.7498 10.4736 19.3367 9.30755 18.6481 8.46984C17.9607 7.63352 17.0307 7.16371 16.067 6.99225C14.1828 6.65701 12.0283 7.45304 11.1767 9.08157L12.0628 9.54498C12.6637 8.396 14.3242 7.69787 15.8919 7.97679C16.6542 8.11242 17.3593 8.47678 17.8756 9.10483C18.3907 9.7315 18.7498 10.66 18.7498 11.9808H19.7498ZM12.1196 9.32463L12.1546 7.78463L11.1549 7.76191L11.1199 9.30191L12.1196 9.32463Z" fill="black"/>
</svg>
