<svg width="108" height="68" viewBox="0 0 108 68" fill="none" xmlns="http://www.w3.org/2000/svg">
<path d="M3.00823 39.9988C2.72862 40.0121 2.45421 39.9173 2.24092 39.7315C2.05885 39.5084 1.97431 39.2185 2.00683 38.9299V11.6742C1.97431 11.3857 2.05885 11.0957 2.24092 10.8726C2.45681 10.7043 2.72471 10.6241 2.99522 10.6455H5.88238C6.4286 10.5894 6.92019 10.9835 7.00083 11.5406L7.28694 12.6095C8.11797 11.7851 9.09987 11.1358 10.1741 10.6989C11.273 10.242 12.4474 10.0055 13.6335 10.0042C15.9978 9.924 18.2581 11.0049 19.7199 12.9168C21.33 15.1961 22.1298 17.9738 21.9828 20.7862C22.027 22.8277 21.646 24.8545 20.8644 26.7317C20.2193 28.2949 19.1711 29.6483 17.8342 30.6463C16.5414 31.5522 15.0029 32.0198 13.4384 31.9824C12.3759 31.9877 11.3199 31.8074 10.3172 31.448C9.39509 31.13 8.54325 30.6303 7.80715 29.9783V38.9566C7.83576 39.2425 7.75773 39.5298 7.58606 39.7583C7.36367 39.9346 7.08406 40.0148 6.80575 39.9854L3.00823 39.9988ZM11.7607 27.4932C13.0456 27.5881 14.2889 26.9975 15.0511 25.93C15.8613 24.4363 16.228 22.7315 16.1045 21.0267C16.2293 19.3058 15.8678 17.585 15.0641 16.0699C14.2993 14.9917 13.043 14.3998 11.7477 14.5067C10.3731 14.508 9.02574 14.8901 7.84617 15.6156V26.3709C9.01663 27.1191 10.3692 27.5119 11.7477 27.5066L11.7607 27.4932Z" fill="white" stroke="black" stroke-width="1.5"/>
<path d="M27.0049 30.9849C26.5444 31.0737 26.1007 30.761 26.0145 30.2851C25.9952 30.1791 25.9952 30.0704 26.0145 29.9644V11.2637C25.9823 10.9774 26.0659 10.6898 26.246 10.4684C26.4595 10.3014 26.7245 10.2219 26.9921 10.2431H29.8348C30.375 10.1875 30.8613 10.5784 30.941 11.1311L31.4555 13.3047C32.3006 12.2855 33.3104 11.424 34.4397 10.76C35.3607 10.263 36.3846 10.0046 37.424 10.0046H37.9771C38.2562 9.97938 38.5353 10.0589 38.7617 10.2299C38.9418 10.4512 39.0254 10.7388 38.9932 11.0251V14.4445C39.0151 14.7202 38.9379 14.9932 38.7746 15.2132C38.5598 15.3988 38.2806 15.4849 38.0028 15.4518H37.2953C37.0033 15.4518 36.6355 15.4518 36.1891 15.4518C35.4456 15.4677 34.7047 15.5565 33.9767 15.7168C33.2178 15.8613 32.4768 16.0879 31.7642 16.3928V29.9777C31.7848 30.2533 31.7076 30.5264 31.5456 30.7464C31.3308 30.9319 31.0516 31.0181 30.7738 30.9849H27.0049Z" fill="white" stroke="black" stroke-width="1.5"/>
<path d="M45.4936 7.29311C44.5711 7.33761 43.6663 7.03786 42.9643 6.45538C42.3124 5.86504 41.9621 5.02731 42.004 4.16472C41.958 3.29688 42.3083 2.45392 42.9643 1.86096C44.4467 0.713013 46.5539 0.713013 48.0363 1.86096C48.6882 2.4513 49.0386 3.28903 48.9966 4.15163C49.0386 5.01423 48.6882 5.85195 48.0363 6.44229C47.333 7.03263 46.4228 7.33761 45.4936 7.29311ZM43.5053 30.9851C43.0211 31.0728 42.5545 30.7639 42.4639 30.294C42.4436 30.1893 42.4436 30.0819 42.4639 29.9772V11.4948C42.4301 11.2121 42.518 10.9281 42.7073 10.7095C42.9319 10.5445 43.2105 10.466 43.4918 10.4869H47.4818C47.7712 10.4582 48.062 10.5367 48.2933 10.7095C48.4718 10.9333 48.553 11.2147 48.5232 11.4948V29.9772C48.5462 30.2495 48.4651 30.5191 48.2933 30.7364C48.0674 30.9197 47.7739 31.0048 47.4818 30.972L43.5053 30.9851Z" fill="white" stroke="black" stroke-width="1.5"/>
<path d="M54.0456 30.9852C53.5665 31.0723 53.1047 30.7656 53.0151 30.2989C52.995 30.195 52.995 30.0884 53.0151 29.9844V11.6444C52.9816 11.3636 53.0686 11.0816 53.256 10.8645C53.4781 10.7007 53.7538 10.6228 54.0322 10.6436H56.99C57.5522 10.589 58.0581 10.9724 58.141 11.5144L58.4756 12.5932C59.6936 11.7783 61.0105 11.1154 62.3971 10.6176C63.5414 10.2302 64.7446 10.0288 65.9572 10.0197C68.0665 9.84419 70.0928 10.8541 71.1769 12.6192C72.3988 11.803 73.7265 11.1479 75.1251 10.6696C76.3591 10.2705 77.652 10.0691 78.9529 10.0717C80.5964 9.97547 82.2078 10.5396 83.4097 11.6314C84.5178 12.8116 85.088 14.3778 84.989 15.9727V29.9974C85.0104 30.2677 84.9301 30.5355 84.7614 30.7513C84.5379 30.9332 84.2475 31.0177 83.9584 30.9852H80.0637C79.5846 31.0723 79.1228 30.7656 79.0332 30.2989C79.0131 30.195 79.0131 30.0884 79.0332 29.9844V17.1945C79.0332 15.3839 78.1994 14.4779 76.5304 14.4779C74.9752 14.4948 73.4427 14.851 72.0468 15.5178V29.9974C72.0696 30.2677 71.9893 30.5355 71.8193 30.7513C71.5958 30.9332 71.3054 31.0177 71.0163 30.9852H67.0814C66.6023 31.0723 66.1405 30.7656 66.0509 30.2989C66.0308 30.195 66.0308 30.0884 66.0509 29.9844V17.1945C66.0509 15.3839 65.2171 14.4779 63.5481 14.4779C61.9742 14.487 60.4243 14.8575 59.0244 15.5568V29.9844C59.0458 30.2547 58.9655 30.5225 58.7969 30.7383C58.5733 30.9202 58.2829 31.0047 57.9938 30.9722L54.0456 30.9852Z" fill="white" stroke="black" stroke-width="1.5"/>
<path d="M98.7165 31.9779C95.7832 32.1643 92.9015 31.1647 90.7536 29.2145C88.7894 27.0302 87.808 24.1728 88.0312 21.2811C87.8352 18.2837 88.8289 15.3259 90.808 13.0173C92.8702 10.9493 95.7573 9.8532 98.7165 10.0158C100.905 9.8889 103.067 10.5381 104.801 11.8405C106.268 13.0569 107.077 14.8618 106.993 16.7327C107.092 18.564 106.192 20.312 104.624 21.334C102.513 22.5055 100.094 23.0476 97.6684 22.8943C96.2936 22.9101 94.9215 22.7594 93.5849 22.4447C93.593 23.9071 94.2001 25.306 95.2727 26.332C96.5427 27.2073 98.089 27.6238 99.6421 27.5088C100.402 27.5088 101.161 27.4599 101.915 27.3634C102.953 27.2073 103.979 26.9945 104.992 26.7287H105.237H105.441C105.913 26.7287 106.149 27.0421 106.149 27.6675V29.5318C106.174 29.8478 106.109 30.1638 105.958 30.4441C105.765 30.6649 105.509 30.8249 105.223 30.9069C103.14 31.6513 100.935 32.0149 98.7165 31.9779ZM97.3553 19.2449C98.4266 19.3203 99.4979 19.1008 100.445 18.6103C101.096 18.1779 101.463 17.4441 101.412 16.6798C101.412 14.9781 100.368 14.1279 98.2809 14.1279C95.6035 14.1279 94.0572 15.7239 93.6393 18.9144C94.8548 19.1405 96.0908 19.2515 97.3281 19.2449H97.3553Z" fill="white" stroke="black" stroke-width="1.5"/>
<path d="M96.1515 53.7465C84.6251 62.4027 67.9144 66.9989 53.5326 66.9989C34.314 67.1034 15.748 59.9037 1.46626 46.8053C0.387301 45.8138 1.34784 44.4604 2.65048 45.2242C18.5164 54.4499 36.4732 59.2953 54.7432 59.2806C68.3762 59.2069 81.8619 56.3969 94.4278 51.0129C96.4278 50.1687 98.0594 52.2591 96.1515 53.7465Z" fill="white" stroke="black" stroke-width="1.5"/>
<path d="M101.623 48.3463C100.129 46.408 91.7519 47.4246 87.9769 47.8855C86.8298 48.021 86.643 47.018 87.6835 46.2861C94.353 41.5148 105.331 42.8974 106.598 44.4968C107.865 46.0963 106.265 57.2517 99.9287 62.5786C98.9683 63.3919 98.0479 62.9582 98.4748 61.8738C99.9021 58.2276 103.063 50.2304 101.623 48.3463Z" fill="white" stroke="black" stroke-width="1.5"/>
</svg>
