<svg width="23" height="23" viewBox="0 0 23 23" fill="none" xmlns="http://www.w3.org/2000/svg">
<g clip-path="url(#clip0_10_700)">
<path d="M17.8089 9.39051L17.8152 9.39426L17.8216 9.39782C17.9864 9.4894 18.0701 9.7327 17.9774 9.93492C17.9375 9.97777 17.8599 10.0287 17.7458 10.0527C17.621 10.079 17.4971 10.063 17.4018 10.0118C15.7809 9.05168 13.6531 8.53747 11.5815 8.37248C9.50653 8.20722 7.4287 8.38763 5.89173 8.86574C5.69256 8.92432 5.47916 8.80652 5.41206 8.61812C5.35706 8.42025 5.47478 8.20979 5.66189 8.14356C7.29177 7.66327 9.47606 7.46293 11.6927 7.64423C13.9153 7.82603 16.1222 8.38761 17.8089 9.39051ZM16.3425 12.9622L16.3279 12.9518L16.3126 12.9424C13.6046 11.2875 9.53549 10.791 6.3838 11.7845C6.31103 11.7998 6.23477 11.7887 6.17709 11.7599C6.12027 11.7315 6.09867 11.6966 6.09116 11.6666C6.07212 11.5904 6.08284 11.5091 6.1132 11.4484C6.14161 11.3916 6.17648 11.37 6.20652 11.3625L6.2181 11.3596L6.22953 11.3561C9.59698 10.3413 13.7612 10.8543 16.6052 12.5975L16.6236 12.6087L16.6367 12.6153C16.6383 12.6169 16.6409 12.6199 16.6443 12.6246C16.6545 12.6389 16.6661 12.6621 16.6731 12.6921C16.6876 12.7541 16.6751 12.8056 16.6513 12.8389C16.5921 12.9218 16.5186 12.9667 16.4622 12.9818C16.4141 12.9946 16.3786 12.988 16.3425 12.9622ZM15.3709 15.5406L15.3636 15.5357L15.3561 15.5311C12.9593 14.0522 9.9873 13.7728 6.54884 14.5587L6.53578 14.5617L6.52289 14.5654C6.51251 14.5684 6.50851 14.5676 6.50773 14.5674L6.50765 14.5674C6.50595 14.5671 6.49942 14.5656 6.48839 14.5583C6.46474 14.5425 6.43696 14.5102 6.42038 14.4691C6.41972 14.4645 6.42021 14.4627 6.42027 14.4623C6.42057 14.4606 6.42205 14.4541 6.4294 14.443C6.44457 14.4203 6.47506 14.3937 6.51394 14.377C10.0556 13.5908 13.0641 13.9347 15.4065 15.3762L15.4378 15.3954L15.4716 15.4099C15.4757 15.4117 15.4784 15.4131 15.48 15.4141C15.4805 15.4154 15.4812 15.4174 15.4819 15.4204C15.4842 15.4301 15.4861 15.4471 15.4829 15.4705C15.4811 15.4845 15.4776 15.499 15.4727 15.5134C15.4451 15.5454 15.4223 15.5537 15.4156 15.5554C15.4136 15.5559 15.4118 15.5561 15.4101 15.5562C15.408 15.5564 15.406 15.5562 15.4038 15.5558C15.3999 15.5551 15.3888 15.5525 15.3709 15.5406ZM11.4998 1.41699C10.1757 1.41699 8.86448 1.67781 7.64111 2.18454C6.41775 2.69128 5.30617 3.43401 4.36984 4.37033C2.47885 6.26132 1.4165 8.82606 1.4165 11.5003C1.4165 14.1746 2.47885 16.7393 4.36984 18.6303C5.30617 19.5666 6.41775 20.3094 7.64111 20.8161C8.86448 21.3228 10.1757 21.5837 11.4998 21.5837C14.1741 21.5837 16.7388 20.5213 18.6298 18.6303C20.5208 16.7393 21.5832 14.1746 21.5832 11.5003C21.5832 10.1762 21.3224 8.86497 20.8156 7.6416C20.3089 6.41823 19.5662 5.30666 18.6298 4.37033C17.6935 3.43401 16.5819 2.69128 15.3586 2.18454C14.1352 1.67781 12.824 1.41699 11.4998 1.41699Z" fill="white" stroke="black"/>
</g>
<defs>
<clipPath id="clip0_10_700">
<rect width="23" height="23" fill="white"/>
</clipPath>
</defs>
</svg>
