<svg width="23" height="23" viewBox="0 0 23 23" fill="none" xmlns="http://www.w3.org/2000/svg">
<path d="M21.0381 6.18144C21.1663 6.0321 20.9992 5.83696 20.8097 5.90686C20.3867 6.06289 20.0001 6.1658 19.4283 6.22933C20.1315 5.83775 20.4586 5.27808 20.7247 4.59258C20.7888 4.42724 20.5953 4.2772 20.4286 4.35619C19.7518 4.67713 19.0214 4.91523 18.2534 5.05592C17.4943 4.3036 16.4123 3.8335 15.2153 3.8335C12.9168 3.8335 11.053 5.5669 11.053 7.70437C11.053 8.00781 11.0901 8.30339 11.1603 8.5864C7.8563 8.43246 4.91015 7.01908 2.86332 4.85183C2.72303 4.70329 2.46846 4.72301 2.38111 4.90417C2.14808 5.38752 2.01817 5.92371 2.01817 6.48823C2.01817 7.83093 2.75275 9.01562 3.86942 9.7098C3.36874 9.69476 2.88992 9.5972 2.44867 9.43164C2.23383 9.35104 1.98755 9.49268 2.01642 9.70933C2.23801 11.3729 3.58487 12.7453 5.32337 13.0696C4.97425 13.1585 4.60653 13.2056 4.22614 13.2056C4.13391 13.2056 4.04248 13.2027 3.95188 13.1972C3.72133 13.1829 3.53396 13.3891 3.6328 13.5865C4.28496 14.8881 5.69314 15.7968 7.33184 15.825C5.90748 16.8635 4.11287 17.4822 2.16272 17.4822C1.92226 17.4822 1.81911 17.7913 2.03243 17.8962C3.68003 18.7061 5.55631 19.1668 7.54994 19.1668C15.206 19.1668 19.392 13.2686 19.392 8.15324C19.392 7.9858 19.3878 7.81835 19.3802 7.65248C20.0016 7.235 20.5602 6.73858 21.0381 6.18144Z" fill="white" stroke="black" stroke-linejoin="round"/>
</svg>
