<svg width="23" height="22" viewBox="0 0 23 22" fill="none" xmlns="http://www.w3.org/2000/svg">
<path d="M9.4002 15.7498L9.4002 19.0002C9.4002 20.1048 10.3402 21 11.5 21C12.6598 21 13.5998 20.1048 13.5998 19.0002L13.5998 12.9998L19.9002 12.9998C21.06 12.9998 22 12.1046 22 11C22 9.89543 21.06 9.00019 19.9002 9.00019L13.5998 9.00019L13.5998 2.99981C13.5998 1.89523 12.6598 0.999999 11.5 1C10.3402 1 9.4002 1.89523 9.4002 2.99981L9.4002 9.00019L3.0998 9.00019C1.94 9.00019 1 9.89543 1 11C1 12.1046 1.94 12.9998 3.0998 12.9998L9.4002 12.9998L9.4002 15.7498Z" fill="white" stroke="black" stroke-width="1.5" stroke-miterlimit="10"/>
</svg>
